<svg width="178" height="30" viewBox="0 0 178 30" fill="none" xmlns="http://www.w3.org/2000/svg">
<path d="M36.804 11.42H40.284C41.14 11.42 41.824 11.64 42.336 12.08C42.856 12.512 43.116 13.104 43.116 13.856C43.116 14.456 42.98 14.936 42.708 15.296C42.444 15.648 42.068 15.888 41.58 16.016V16.04C41.972 16.12 42.272 16.316 42.48 16.628C42.688 16.94 42.824 17.284 42.888 17.66C42.952 18.036 43 18.476 43.032 18.98C43.056 19.308 43.08 19.544 43.104 19.688C43.128 19.824 43.172 19.904 43.236 19.928V20H42.072C42.024 19.952 41.992 19.86 41.976 19.724C41.96 19.58 41.952 19.384 41.952 19.136C41.936 18.624 41.896 18.196 41.832 17.852C41.776 17.5 41.632 17.192 41.4 16.928C41.168 16.664 40.816 16.532 40.344 16.532H37.884V20H36.804V11.42ZM37.884 15.572H40.032C40.408 15.572 40.736 15.54 41.016 15.476C41.304 15.404 41.544 15.252 41.736 15.02C41.936 14.788 42.036 14.44 42.036 13.976C42.036 13.512 41.936 13.164 41.736 12.932C41.544 12.7 41.304 12.552 41.016 12.488C40.736 12.416 40.408 12.38 40.032 12.38H37.884V15.572ZM51.0818 15.08V16.04H46.6777V19.04H51.8018V20H45.5977V11.42H51.6578V12.38H46.6777V15.08H51.0818ZM55.5678 17.852L54.8118 20H53.6958L56.8638 11.42H58.0638L61.2198 20H60.1038L59.3478 17.852H55.5678ZM58.9998 16.892L57.4758 12.416H57.4518L55.9278 16.892H58.9998ZM63.3493 11.42H66.4573C67.2493 11.42 67.9293 11.588 68.4973 11.924C69.0733 12.252 69.5133 12.74 69.8173 13.388C70.1213 14.028 70.2733 14.804 70.2733 15.716C70.2733 17.084 69.9333 18.14 69.2533 18.884C68.5813 19.628 67.6493 20 66.4573 20H63.3493V11.42ZM64.4293 19.04H66.4573C67.4573 19.04 68.1613 18.732 68.5693 18.116C68.9853 17.492 69.1933 16.692 69.1933 15.716C69.1933 14.74 68.9853 13.94 68.5693 13.316C68.1613 12.692 67.4573 12.38 66.4573 12.38H64.4293V19.04ZM77.5428 17.852L76.7868 20H75.6708L78.8388 11.42H80.0388L83.1948 20H82.0788L81.3228 17.852H77.5428ZM80.9748 16.892L79.4508 12.416H79.4268L77.9028 16.892H80.9748ZM91.5883 13.58C91.5883 14.46 91.1443 15.052 90.2563 15.356V15.38C90.7443 15.46 91.1443 15.684 91.4563 16.052C91.7683 16.412 91.9243 16.896 91.9243 17.504C91.9243 18.288 91.6643 18.9 91.1443 19.34C90.6243 19.78 89.9163 20 89.0203 20H85.3243V11.42H88.7803C89.6523 11.42 90.3363 11.616 90.8323 12.008C91.3363 12.392 91.5883 12.916 91.5883 13.58ZM88.9483 15.008C89.5243 15.008 89.9283 14.896 90.1603 14.672C90.3923 14.448 90.5083 14.124 90.5083 13.7C90.5083 13.292 90.3883 12.972 90.1483 12.74C89.9083 12.5 89.5483 12.38 89.0683 12.38H86.4043V15.008H88.9483ZM86.4043 19.04H89.1283C90.2723 19.04 90.8443 18.528 90.8443 17.504C90.8443 17.04 90.7083 16.668 90.4363 16.388C90.1723 16.108 89.8163 15.968 89.3683 15.968H86.4043V19.04ZM98.123 20.168C97.299 20.168 96.567 19.976 95.927 19.592C95.295 19.208 94.803 18.68 94.451 18.008C94.099 17.328 93.923 16.56 93.923 15.704C93.923 14.848 94.099 14.084 94.451 13.412C94.803 12.732 95.295 12.204 95.927 11.828C96.567 11.444 97.299 11.252 98.123 11.252C98.947 11.252 99.675 11.444 100.307 11.828C100.947 12.204 101.443 12.732 101.795 13.412C102.147 14.084 102.323 14.848 102.323 15.704C102.323 16.56 102.147 17.328 101.795 18.008C101.443 18.68 100.947 19.208 100.307 19.592C99.675 19.976 98.947 20.168 98.123 20.168ZM98.123 19.208C98.811 19.208 99.387 19.052 99.851 18.74C100.323 18.42 100.671 17.996 100.895 17.468C101.127 16.932 101.243 16.344 101.243 15.704C101.243 15.064 101.127 14.48 100.895 13.952C100.671 13.424 100.323 13.004 99.851 12.692C99.387 12.372 98.811 12.212 98.123 12.212C97.435 12.212 96.855 12.372 96.383 12.692C95.919 13.004 95.571 13.424 95.339 13.952C95.115 14.48 95.003 15.064 95.003 15.704C95.003 16.344 95.115 16.932 95.339 17.468C95.571 17.996 95.919 18.42 96.383 18.74C96.855 19.052 97.435 19.208 98.123 19.208ZM111.242 17.144C111.242 18.064 110.97 18.8 110.426 19.352C109.882 19.896 109.058 20.168 107.954 20.168C106.85 20.168 106.026 19.896 105.482 19.352C104.938 18.8 104.666 18.064 104.666 17.144V11.42H105.746V17.144C105.746 17.84 105.926 18.36 106.286 18.704C106.654 19.04 107.21 19.208 107.954 19.208C108.698 19.208 109.25 19.04 109.61 18.704C109.978 18.36 110.162 17.84 110.162 17.144V11.42H111.242V17.144ZM116.225 12.38H113.369V11.42H120.161V12.38H117.305V20H116.225V12.38ZM132.467 17.144C132.467 18.064 132.195 18.8 131.651 19.352C131.107 19.896 130.283 20.168 129.179 20.168C128.075 20.168 127.251 19.896 126.707 19.352C126.163 18.8 125.891 18.064 125.891 17.144V11.42H126.971V17.144C126.971 17.84 127.151 18.36 127.511 18.704C127.879 19.04 128.435 19.208 129.179 19.208C129.923 19.208 130.475 19.04 130.835 18.704C131.203 18.36 131.387 17.84 131.387 17.144V11.42H132.467V17.144ZM138.335 14.996C139.135 15.196 139.743 15.38 140.159 15.548C140.575 15.716 140.907 15.972 141.155 16.316C141.403 16.66 141.527 17.14 141.527 17.756C141.527 18.188 141.415 18.588 141.191 18.956C140.975 19.324 140.635 19.62 140.171 19.844C139.707 20.06 139.127 20.168 138.431 20.168C137.751 20.168 137.135 20.052 136.583 19.82C136.039 19.58 135.599 19.232 135.263 18.776C134.935 18.312 134.751 17.76 134.711 17.12H135.791C135.855 17.76 136.099 18.268 136.523 18.644C136.947 19.02 137.583 19.208 138.431 19.208C139.127 19.208 139.635 19.072 139.955 18.8C140.283 18.528 140.447 18.18 140.447 17.756C140.447 17.364 140.367 17.064 140.207 16.856C140.055 16.648 139.811 16.484 139.475 16.364C139.139 16.236 138.611 16.088 137.891 15.92C137.339 15.792 136.867 15.648 136.475 15.488C136.083 15.328 135.751 15.088 135.479 14.768C135.207 14.448 135.071 14.028 135.071 13.508C135.071 12.82 135.327 12.272 135.839 11.864C136.351 11.456 137.075 11.252 138.011 11.252C138.939 11.252 139.691 11.488 140.267 11.96C140.851 12.424 141.179 13.092 141.251 13.964H140.171C140.091 13.38 139.875 12.944 139.523 12.656C139.179 12.36 138.675 12.212 138.011 12.212C137.419 12.212 136.959 12.32 136.631 12.536C136.311 12.744 136.151 13.028 136.151 13.388C136.151 13.748 136.239 14.028 136.415 14.228C136.591 14.42 136.807 14.56 137.063 14.648C137.319 14.736 137.743 14.852 138.335 14.996Z" fill="#323334"/>
<rect x="0.5" y="0.5" width="177" height="29" rx="7.5" stroke="#DFDEDB"/>
</svg>
