<svg width="137" height="30" viewBox="0 0 137 30" fill="none" xmlns="http://www.w3.org/2000/svg">
<rect width="137" height="30" rx="8" fill="#F8F4E7"/>
<path d="M39.888 14.996C40.688 15.196 41.296 15.38 41.712 15.548C42.128 15.716 42.46 15.972 42.708 16.316C42.956 16.66 43.08 17.14 43.08 17.756C43.08 18.188 42.968 18.588 42.744 18.956C42.528 19.324 42.188 19.62 41.724 19.844C41.26 20.06 40.68 20.168 39.984 20.168C39.304 20.168 38.688 20.052 38.136 19.82C37.592 19.58 37.152 19.232 36.816 18.776C36.488 18.312 36.304 17.76 36.264 17.12H37.344C37.408 17.76 37.652 18.268 38.076 18.644C38.5 19.02 39.136 19.208 39.984 19.208C40.68 19.208 41.188 19.072 41.508 18.8C41.836 18.528 42 18.18 42 17.756C42 17.364 41.92 17.064 41.76 16.856C41.608 16.648 41.364 16.484 41.028 16.364C40.692 16.236 40.164 16.088 39.444 15.92C38.892 15.792 38.42 15.648 38.028 15.488C37.636 15.328 37.304 15.088 37.032 14.768C36.76 14.448 36.624 14.028 36.624 13.508C36.624 12.82 36.88 12.272 37.392 11.864C37.904 11.456 38.628 11.252 39.564 11.252C40.492 11.252 41.244 11.488 41.82 11.96C42.404 12.424 42.732 13.092 42.804 13.964H41.724C41.644 13.38 41.428 12.944 41.076 12.656C40.732 12.36 40.228 12.212 39.564 12.212C38.972 12.212 38.512 12.32 38.184 12.536C37.864 12.744 37.704 13.028 37.704 13.388C37.704 13.748 37.792 14.028 37.968 14.228C38.144 14.42 38.36 14.56 38.616 14.648C38.872 14.736 39.296 14.852 39.888 14.996ZM46.5957 11.42V15.068H51.1797V11.42H52.2597V20H51.1797V16.028H46.5957V20H45.5157V11.42H46.5957ZM59.0058 20.168C58.1818 20.168 57.4498 19.976 56.8098 19.592C56.1778 19.208 55.6858 18.68 55.3338 18.008C54.9818 17.328 54.8058 16.56 54.8058 15.704C54.8058 14.848 54.9818 14.084 55.3338 13.412C55.6858 12.732 56.1778 12.204 56.8098 11.828C57.4498 11.444 58.1818 11.252 59.0058 11.252C59.8298 11.252 60.5578 11.444 61.1898 11.828C61.8298 12.204 62.3258 12.732 62.6778 13.412C63.0298 14.084 63.2058 14.848 63.2058 15.704C63.2058 16.56 63.0298 17.328 62.6778 18.008C62.3258 18.68 61.8298 19.208 61.1898 19.592C60.5578 19.976 59.8298 20.168 59.0058 20.168ZM59.0058 19.208C59.6938 19.208 60.2698 19.052 60.7338 18.74C61.2058 18.42 61.5538 17.996 61.7778 17.468C62.0098 16.932 62.1258 16.344 62.1258 15.704C62.1258 15.064 62.0098 14.48 61.7778 13.952C61.5538 13.424 61.2058 13.004 60.7338 12.692C60.2698 12.372 59.6938 12.212 59.0058 12.212C58.3178 12.212 57.7378 12.372 57.2658 12.692C56.8018 13.004 56.4538 13.424 56.2218 13.952C55.9978 14.48 55.8858 15.064 55.8858 15.704C55.8858 16.344 55.9978 16.932 56.2218 17.468C56.4538 17.996 56.8018 18.42 57.2658 18.74C57.7378 19.052 58.3178 19.208 59.0058 19.208ZM65.6931 11.42H69.1011C69.9411 11.42 70.6131 11.624 71.1171 12.032C71.6291 12.432 71.8851 13.06 71.8851 13.916C71.8851 14.772 71.6291 15.404 71.1171 15.812C70.6131 16.212 69.9411 16.412 69.1011 16.412H66.7731V20H65.6931V11.42ZM66.7731 15.452H69.2211C69.7571 15.452 70.1531 15.328 70.4091 15.08C70.6731 14.824 70.8051 14.436 70.8051 13.916C70.8051 13.396 70.6731 13.012 70.4091 12.764C70.1531 12.508 69.7571 12.38 69.2211 12.38H66.7731V15.452ZM78.9139 17.852L78.1579 20H77.0419L80.2099 11.42H81.4099L84.5659 20H83.4499L82.6939 17.852H78.9139ZM82.3459 16.892L80.8219 12.416H80.7979L79.2739 16.892H82.3459ZM87.7754 11.42V19.04H92.2754V20H86.6954V11.42H87.7754ZM95.6199 11.42V19.04H100.12V20H94.5399V11.42H95.6199Z" fill="#323334"/>
</svg>
